<svg width="40" height="40" viewBox="0 0 40 40" fill="none" xmlns="http://www.w3.org/2000/svg">
<path d="M22.1125 4.22656L20.6375 0.492181C20.3938 -0.156257 19.6312 -0.179694 19.3625 0.492181L17.8875 4.22656L14.6187 4.81249C14.0375 4.92187 13.7875 5.82031 14.2188 6.35937L16.5938 9.24999L16.0312 13.3203C15.9438 14.0469 16.5437 14.6094 17.0812 14.2734L20.0125 12.3359L22.925 14.2422C23.4625 14.5781 24.0688 14.0156 23.975 13.2891L23.4125 9.21874L25.7875 6.35937C26.2125 5.82812 25.9688 4.92968 25.3875 4.81249L22.1187 4.22656H22.1125ZM16 20C14.8937 20 14 21.1172 14 22.5V37.5C14 38.8828 14.8937 40 16 40H24C25.1063 40 26 38.8828 26 37.5V22.5C26 21.1172 25.1063 20 24 20H16ZM2 25C0.89375 25 0 26.1172 0 27.5V37.5C0 38.8828 0.89375 40 2 40H10C11.1063 40 12 38.8828 12 37.5V27.5C12 26.1172 11.1063 25 10 25H2ZM28 32.5V37.5C28 38.8828 28.8937 40 30 40H38C39.1063 40 40 38.8828 40 37.5V32.5C40 31.1172 39.1063 30 38 30H30C28.8937 30 28 31.1172 28 32.5Z" fill="#26532B"/>
</svg>
