<svg width="34" height="34" viewBox="0 0 34 34" fill="none" xmlns="http://www.w3.org/2000/svg">
<rect x="0.75" y="0.75" width="32.5" height="32.5" rx="8.25" fill="url(#paint0_radial_52_42)" stroke="#F4FAFF" stroke-width="0.5"/>
<path d="M18.0465 5L11.9412 8.92846C10.8475 9.6322 9.94183 10.592 9.3027 11.7247L7.84945 14.3001C7.40139 15.0942 6.82089 15.8058 6.13302 16.4043L2 20H4.50307C5.91274 20 7.29739 19.6275 8.51681 18.9202L9.24138 18.5L10.6653 16.4354C11.0867 15.8242 11.6722 15.3445 12.3543 15.0515V15.0515C14.6283 14.0745 16.3116 12.0864 16.9002 9.68239L18.0465 5ZM18.0465 5L19.8499 8.20845C20.6866 9.697 21.9776 10.8788 23.5341 11.5809L23.822 11.7108C27.1084 13.1933 29.7978 15.7424 31.4542 18.9447L32 20" stroke="#F4FAFF" stroke-width="0.5"/>
<path d="M14.46 27C14.38 27 14.308 26.972 14.244 26.916C14.188 26.852 14.16 26.78 14.16 26.7V21.384L13.044 21.996C12.996 22.02 12.948 22.032 12.9 22.032C12.82 22.032 12.748 22.004 12.684 21.948C12.628 21.884 12.6 21.812 12.6 21.732C12.6 21.62 12.652 21.532 12.756 21.468L14.316 20.616C14.364 20.592 14.412 20.58 14.46 20.58C14.548 20.58 14.62 20.608 14.676 20.664C14.732 20.72 14.76 20.792 14.76 20.88V26.7C14.76 26.78 14.732 26.852 14.676 26.916C14.62 26.972 14.548 27 14.46 27ZM20.3415 27C20.2615 27 20.1895 26.972 20.1255 26.916C20.0695 26.852 20.0415 26.78 20.0415 26.7V25.512H16.6695C16.5895 25.512 16.5175 25.484 16.4535 25.428C16.3975 25.364 16.3695 25.292 16.3695 25.212C16.3695 25.132 16.3935 25.068 16.4415 25.02L20.0295 20.676C20.1015 20.588 20.1575 20.532 20.1975 20.508C20.2375 20.476 20.2855 20.46 20.3415 20.46C20.4295 20.46 20.5015 20.488 20.5575 20.544C20.6135 20.6 20.6415 20.672 20.6415 20.76V24.912H21.6375C21.7255 24.912 21.7975 24.94 21.8535 24.996C21.9095 25.052 21.9375 25.124 21.9375 25.212C21.9375 25.292 21.9095 25.364 21.8535 25.428C21.7975 25.484 21.7255 25.512 21.6375 25.512H20.6415V26.7C20.6415 26.78 20.6135 26.852 20.5575 26.916C20.5015 26.972 20.4295 27 20.3415 27ZM20.0415 21.6L17.3055 24.912H20.0415V21.6Z" fill="#F4FAFF"/>
<defs>
<radialGradient id="paint0_radial_52_42" cx="0" cy="0" r="1" gradientUnits="userSpaceOnUse" gradientTransform="translate(5 3.5) rotate(47.1611) scale(37.5033)">
<stop offset="0.583131" stop-color="#26532B"/>
<stop offset="1" stop-color="#0A220D"/>
</radialGradient>
</defs>
</svg>
